<svg 
 xmlns="http://www.w3.org/2000/svg"
 xmlns:xlink="http://www.w3.org/1999/xlink"
 width="18px" height="18px">
<path fill-rule="evenodd"  fill="rgb(255, 255, 255)"
 d="M15.746,18.008 L15.738,18.008 C14.497,18.008 13.491,17.002 13.491,15.760 L13.491,15.753 C13.491,14.512 14.497,13.506 15.738,13.506 L15.746,13.506 C16.987,13.506 17.993,14.512 17.993,15.753 L17.993,15.760 C17.993,17.002 16.987,18.008 15.746,18.008 ZM15.746,4.502 L15.738,4.502 C14.497,4.502 13.491,3.496 13.491,2.255 L13.491,2.247 C13.491,1.006 14.497,-0.000 15.738,-0.000 L15.746,-0.000 C16.987,-0.000 17.993,1.006 17.993,2.247 L17.993,2.255 C17.993,3.496 16.987,4.502 15.746,4.502 ZM2.240,18.008 L2.232,18.008 C0.991,18.008 -0.015,17.002 -0.015,15.760 L-0.015,15.753 C-0.015,14.512 0.991,13.506 2.232,13.506 L2.240,13.506 C3.481,13.506 4.487,14.512 4.487,15.753 L4.487,15.760 C4.487,17.002 3.481,18.008 2.240,18.008 ZM2.240,4.502 L2.232,4.502 C0.991,4.502 -0.015,3.496 -0.015,2.255 L-0.015,2.247 C-0.015,1.006 0.991,-0.000 2.232,-0.000 L2.240,-0.000 C3.481,-0.000 4.487,1.006 4.487,2.247 L4.487,2.255 C4.487,3.496 3.481,4.502 2.240,4.502 Z"/>
</svg>