<svg 
 xmlns="http://www.w3.org/2000/svg"
 xmlns:xlink="http://www.w3.org/1999/xlink"
 width="78px" height="23px">
<path fill-rule="evenodd"  fill="rgb(255, 255, 255)"
 d="M74.442,22.993 L74.442,5.626 L67.000,16.372 L63.489,16.372 L56.046,5.626 L56.046,22.993 L52.492,22.993 L52.492,-0.006 L56.236,-0.007 L65.244,13.258 L74.253,-0.007 L77.997,-0.006 L77.997,22.993 L74.442,22.993 ZM43.515,-0.006 L47.070,-0.006 L47.070,22.993 L43.515,22.993 L43.515,-0.006 ZM34.558,19.509 L38.129,19.509 L38.129,22.993 L34.558,22.993 L34.558,19.509 ZM27.222,19.884 C26.201,20.855 25.029,21.620 23.740,22.155 C22.399,22.711 20.991,22.993 19.555,22.993 L14.237,22.993 L14.237,19.582 L19.555,19.582 C22.828,19.582 25.405,17.815 26.580,14.956 C26.580,14.956 27.235,13.538 27.235,11.494 C27.235,9.449 26.580,8.032 26.580,8.032 C25.405,5.170 22.828,3.407 19.555,3.407 L12.492,3.407 L12.492,11.494 L12.492,16.487 L12.492,19.816 L12.492,22.993 L8.937,22.993 L8.937,11.494 L8.937,-0.006 L19.555,-0.006 C20.991,-0.006 22.399,0.276 23.740,0.832 C25.029,1.366 26.201,2.130 27.222,3.102 C28.242,4.073 29.057,5.200 29.646,6.452 C29.646,6.452 30.713,8.543 30.713,11.494 C30.713,14.444 29.646,16.537 29.646,16.537 C29.057,17.787 28.242,18.914 27.222,19.884 ZM-0.001,6.754 L-0.001,-0.006 L3.552,-0.006 L3.552,6.754 L3.552,22.993 L-0.001,22.993 L-0.001,6.754 Z"/>
</svg>