<svg 
 xmlns="http://www.w3.org/2000/svg"
 xmlns:xlink="http://www.w3.org/1999/xlink"
 width="18px" height="14px">
<path fill-rule="evenodd"  fill="rgb(255, 255, 255)"
 d="M15.000,-0.003 L3.000,-0.003 C1.346,-0.003 -0.000,1.343 -0.000,2.998 L-0.000,10.998 C-0.000,12.652 1.346,13.998 3.000,13.998 L15.000,13.998 C16.654,13.998 18.000,12.652 18.000,10.998 L18.000,2.998 C18.000,1.343 16.654,-0.003 15.000,-0.003 ZM14.463,1.997 L9.000,6.681 L3.536,1.997 L14.463,1.997 ZM15.000,11.996 L3.000,11.996 C2.449,11.996 2.000,11.548 2.000,10.998 L2.000,3.315 L8.349,8.756 C8.536,8.916 8.768,8.997 9.000,8.997 C9.232,8.997 9.463,8.916 9.651,8.756 L16.000,3.315 L16.000,10.998 C16.000,11.548 15.551,11.996 15.000,11.996 Z"/>
</svg>