<svg 
 xmlns="http://www.w3.org/2000/svg"
 xmlns:xlink="http://www.w3.org/1999/xlink"
 width="16px" height="12px">
<path fill-rule="evenodd"  fill="rgb(118, 118, 118)"
 d="M15.000,7.000 L15.000,8.000 L14.000,8.000 L14.000,9.000 L13.000,9.000 L13.000,10.000 L12.000,10.000 L12.000,11.000 L11.000,11.000 L11.000,12.000 L10.000,12.000 L10.000,11.000 L10.000,10.000 L11.000,10.000 L11.000,9.000 L12.000,9.000 L12.000,8.000 L13.000,8.000 L13.000,7.000 L-0.000,7.000 L-0.000,5.000 L13.000,5.000 L13.000,4.000 L12.000,4.000 L12.000,3.000 L11.000,3.000 L11.000,2.000 L10.000,2.000 L10.000,1.000 L10.000,-0.000 L11.000,-0.000 L11.000,1.000 L12.000,1.000 L12.000,2.000 L13.000,2.000 L13.000,3.000 L14.000,3.000 L14.000,4.000 L15.000,4.000 L15.000,5.000 L16.000,5.000 L16.000,6.000 L16.000,7.000 L15.000,7.000 Z"/>
</svg>